<?xml version="1.0" encoding="utf-8"?>
<!-- Generator: Adobe Illustrator 26.2.1, SVG Export Plug-In . SVG Version: 6.00 Build 0)  -->
<svg version="1.1" id="Layer_1" xmlns="http://www.w3.org/2000/svg" xmlns:xlink="http://www.w3.org/1999/xlink" x="0px" y="0px"
	 viewBox="0 0 179.7 138.9" style="enable-background:new 0 0 179.7 138.9;" xml:space="preserve">
<style type="text/css">
	.st0{fill:#00B08D;}
	.st1{display:none;fill:#00B08D;}
	.st2{display:none;}
	.st3{display:inline;fill:#00B08D;}
	.st4{fill:#202020;}
	.st5{fill:#EDEDEC;}
	.st6{display:inline;fill:#00F7C8;}
</style>
<g>
	<g>
		<path class="st5" d="M108.9,56.1c-1.5,0-1.5,2.2,0,2.2C110.4,58.4,110.4,56.1,108.9,56.1z"/>
		<path class="st5" d="M136,50.9c-1.3,3.6-3.7,10.3-4.5,12.7c0.9-2.3,4.4-8.3,6-11.4C137,51.8,136.5,51.3,136,50.9z M129,43.8
			c0.7-3.5,1.7-8.1,1.4-12c0-0.6-0.2-1.1-0.5-1.6c0,0-0.1-0.1-0.1-0.1c-0.5-0.6-1.2-1.2-2.1-1c0,0-0.1,0.1-0.1,0.1
			c-4.3,1.8-6,6.5-7.7,10.7c-0.2,0.5-0.5,1.4-0.7,1.9c1,0.1,2.1,0.3,3.1,0.5c1.3-3.3,2.9-6.8,4.5-9c0,0,0,0,0,0
			c0.3-0.3,0.7-0.1,0.8,0.3c0,0,0,0,0,0.1c-0.2,2.7-0.9,6.4-1.6,9.5 M116.4,81.7c-0.2-0.6-0.3-1.4-0.4-2.3
			c6.1-9.9,9.5-21.4,12.3-32.7c-0.9-0.4-1.9-0.7-2.9-1c-1.3,5.3-3,10.7-4.6,15.9c-1.6,4.8-3.1,9.6-5,14.2c0-3.6,0.4-7.8,0.9-11.4
			c0.9-6.1,2.4-13.4,4.5-19.8c-1-0.2-2-0.4-3-0.6c-3.3,9.9-5.2,20.2-5.5,30.6c0.1,2.3-0.1,4.7,0.4,6.9c-0.1,0.2-0.3,0.4-0.4,0.6
			c-0.4,0.6-0.8,1.1-1.3,1.6c-0.4,0.5-0.9,1.1-1.3,1.6c-0.4,0.4-0.8,0.8-1.2,1.1c-0.1,0.1-0.2,0.1-0.3,0.2c-0.4,0.3-0.9,0.7-1.5,0.9
			c-0.1,0.1-0.3,0.1-0.4,0.2c-0.3,0.1-0.6,0.2-0.9,0.2c-0.3,0-0.7,0.1-1-0.1c-0.2-0.1-0.3-0.2-0.4-0.3c-0.3-0.4-0.4-1-0.4-1.5
			c0-0.4-0.1-0.9,0-1.3v0c0.1-0.6,0.1-1.1,0.2-1.6c0-0.1,0-0.1,0-0.2c0.4-2.1,1-4.1,1.7-6c0,0,0,0,0-0.1c0.2-0.5,0.4-1.1,0.6-1.6
			c0.3-0.9,0.8-1.7,0.9-2.6c0,0,0-0.1,0-0.1c0-0.2,0.1-0.4,0-0.6c-0.1-1-1.3-1.5-2.1-1c-0.8,0.5-0.9,1.5-1.3,2.3
			c-0.9,1.9-1.8,4.2-2.8,6.5c-2.3,5.3-5,10.7-9.3,11.8c-0.9,0.3-1.5-0.3-1.7-1.6c1-2.2,1.9-4.6,2.4-7c0.3-1.3,0.8-2.7,0.5-4.1
			c-0.3-1.1-1.5-2.4-2.7-1.7c-2.4,2.3-2.7,5.8-3.2,8.9c-0.1,1-0.2,2.1-0.2,3.2c0,0.1,0,0.3-0.1,0.4c-1.3,2.7-3.1,5.2-5.7,7.4
			c-0.9,0.6-1.3,0.9-2.9,1.4c-0.1,0-0.4,0.1-0.5,0.1c-0.2,0-0.4,0-0.6,0c0,0,0,0-0.1,0c0,0,0,0,0,0c0,0,0,0-0.1,0c0,0,0,0,0,0
			c-0.3-0.5-0.4-0.3-0.7-1.4c0-0.7,0.2-2,0.4-3.4c0,0,0-0.1,0-0.1c0.2-0.7,0.5-1.5,0.7-2.2c0.8-2.8,1.7-5.7,1.8-8.7
			c0-0.9-0.9-1.7-1.8-1.5c-1.6,0.2-1.5,2.3-2,3.5c-0.6,2.7-1.3,5.4-1.8,8.2c0,0.1,0,0.1,0,0.1c-0.9,2.7-2.1,5.3-3.5,7.4
			c-3,4.6-6.2,6.4-7.6,3.9c-0.1-0.2-0.1-0.5,0-0.7c3.1-6.1,4.2-13.5,3.5-18.4c-0.1-1.7-1.8-1.9-3-1c-0.6,0.3-1,0.7-1.4,1.2
			c-0.2,0.3-0.6,0.5-1,0.3c-0.7-0.3-1.5-0.6-2.2-0.7c-0.1,0-0.2,0-0.2,0c-4.6,0.5-8.7,4.4-11.6,8.8c-0.1,0.1-0.2,0.2-0.3,0.3
			c-0.5,0.3-0.9,0.6-1.3,1c-1.5,1.9-2.3,4.2-3,6.5c-0.2,0.6-0.5,1.7-0.6,2.3c0,0.2-0.1,0.4-0.1,0.7c0,0,0,0,0,0
			c-3.5,5-6.9,10.1-10.4,15c-4.1,5.2-7.3,9.7-12.5,12.5c-2.6,1.5-5.8,1.1-8.9-1.7c-7.6-7.8-2.6-34.6,0.8-48.6
			c3.9-15.4,10-31.6,17.8-43.7c3.7-5.5,7.7-9.9,12.9-12.6c2.2-1.2,5.5-2.1,6.3,0.9c0.2,0.6,0.4,2.8-0.1,5.1
			c-1.4,6.7-4.8,15.1-8.5,22.3c-3.7,7.2-7.5,14.5-11.9,21.2c8.5-8.7,21.8-28.6,23.7-42.6c0.1-1,0.2-2,0.2-3.1
			c-0.1-1.8-0.3-3.6-1.2-5.1c-1.8-2.8-5-3.7-7.7-2.6c-6.3,2.3-11.5,7.9-15.6,13.8C17.6,49.2,11.5,65.6,7.2,82.5
			c-3.1,13-7.8,36.1-2.1,48.2c2.4,4.7,7.5,7.2,11.9,5.8c9.5-2.9,18.6-16.2,25.4-28.4c0.8,1.7,2.5,5,5,5.9c1.2,0.4,2.3,0.7,3.6,0.4
			c0.5-0.1,0.9-0.2,1.3-0.4c1.7-0.7,3.3-1.7,4.6-3c1.5-1.2,2.8-2.6,4-4.2c0,0,0.1,0.1,0.1,0.1c2.8,2.7,6.5,1.5,8.9-1
			c1.5-1.5,2.8-3.2,3.9-5c0.3-0.4,0.9-0.6,1.3-0.2c1.2,1.2,3.1,1.4,5.1,0.6c3.8-1.3,6.5-4.5,8.6-7.9c0.2,0.3,0.5,0.5,0.8,0.7
			c3.9,2.1,8.1-1.6,10.3-4.7c0.8-1.3,1.6-2.6,2.3-3.9c0,0.4,0,0.8,0.1,1.3c0.1,0.5,0.1,0.9,0.3,1.4c0,0.1,0.1,0.2,0.1,0.2
			c0.3,0.7,0.9,1.2,1.6,1.5c0.7,0.3,1.4,0.3,2.1,0.3c0.7-0.1,1.3-0.3,1.9-0.6c1-0.6,1.9-1.3,2.7-2.1c1.1-1.2,2-2.7,2.8-4.2
			c0.2,0.4,0.3,1,0.6,1.3c6.3,9.4,12.9-9.1,14.7-14.2C126.3,76,120.1,90.1,116.4,81.7z M60.7,89.4c0,0.1,0,0.2-0.1,0.3
			c-0.2,1.1-0.5,2.1-0.7,3.2c-0.3,1.3-0.5,2.5-0.7,3.8c-0.2,1.8-0.3,3.8-0.1,5.7c0,0.2,0,0.3-0.1,0.4c-0.8,1.7-1.7,3.3-2.8,4.6
			c-0.8,0.9-1.8,1.7-2.8,2.3c-0.5,0.3-1,0.5-1.5,0.8c-0.5,0.2-1,0.5-1.6,0.6c-0.6,0.1-1.2,0-1.8-0.2c-0.5-0.2-1-0.4-1.5-0.7
			c-0.2-0.1-0.3-0.3-0.5-0.4c-0.4-0.5-0.7-1.1-1-1.7c-0.3-0.7-0.4-1.7-0.3-2.5c0-0.8,0.2-1.8,0.5-2.5c0.4-1.2,0.8-2.3,1.4-3.3
			c0.3-0.6,0.6-1.2,0.9-1.7c0.1-0.2,0.3-0.5,0.4-0.7c0.1-0.2,0.2-0.5,0.3-0.7c0.2-0.5,0.5-1,0.8-1.4c0.3-0.5,0.8-0.9,1.1-1.3
			c0,0,0.1-0.1,0.1-0.1c0.2-0.3,0.5-0.6,0.8-0.8c0.3-0.3,0.6-0.7,0.9-1.1c0.4-0.4,0.8-0.8,1.3-1.2c0.8-0.7,1.7-1.4,2.7-1.9
			c0.4-0.2,0.7-0.4,1.1-0.5c0.6-0.2,1.2-0.3,1.8-0.1c0.1,0.1,0.3,0.1,0.4,0.2c0.3,0.2,0.6,0.4,0.8,0.6c0,0,0.1,0.1,0.1,0.1
			C60.7,89.2,60.7,89.3,60.7,89.4z"/>
	</g>
	<path class="st5" d="M81.5,45.6c9.2-1.7,19.8-3.1,30.5-2.3c2.1,0.2,4.3,0.4,6.3,0.7c1,0.2,2,0.4,3,0.6c1.4,0.3,2.8,0.7,4.2,1.1
		c1,0.3,2,0.6,2.9,1c2.8,1.1,5.3,2.5,7.6,4.2c0.5,0.4,1.1,0.8,1.5,1.3c1.6,1.4,3,2.9,3.9,4.8c0.2,0.3,0.3,0.7,0.5,1
		c0.5,1.2,0.8,2.5,1.1,3.7c0,0.1,0,0.1,0,0.2c0.9,3.6,1.4,6.8,1.8,10.6c0,1.2,0.1,2.4,0.1,3.4c-0.2,1.4-0.4,2.8-0.5,4.1
		c-0.3,3-0.6,6-0.8,9.1c0,0.1,0,0.2,0,0.3c0,0.4,0.1,0.8,0.4,1.2c0.7,1.1,2.4,1.2,3.3,0.2c0.3-0.2,0.5-1.1,0.5-1.2
		c0-0.1,0.1-0.3,0.1-0.4c1-4.2,1.3-8.6,1.2-13c2.7-17.3,8.7-32.9,17.2-49.1c3.7-7,8.1-12.2,10.5-19.8c0.5-1.9,0.6-4.1-0.7-4.8
		c-4-1.9-7.2,1.6-11,4.9c-12.1,10.8-21.4,24.8-28,40.2c-1.1-0.7-2.3-1.4-3.6-2c-1.4-0.7-3-1.3-4.5-1.8c-1-0.3-2-0.6-3.1-0.9
		c-1.2-0.3-2.5-0.6-3.7-0.8c-1-0.2-2.1-0.3-3.1-0.5c-6.9-0.9-14-0.6-20,0c-7,0.8-14,2-20.7,4.2c-0.7,0.2-1.4,0.5-2,0.8
		C79.4,46.1,81.5,45.6,81.5,45.6z M163,24.8c-5,9.4-9.4,19-12.6,29.1c-1,3.1-2,6.3-2.8,9.5c-0.1-0.3-0.2-0.7-0.3-1
		c-0.1-0.4-0.2-0.8-0.3-1.3c-1.3-5.1-4.1-9-7.6-12c3.2-6,6.2-10.8,9.7-16.2c6.1-9.3,13.5-18.5,21.1-24.5c1.2-1.1,2-1.8,2.9-2.2
		C170.5,12.9,166.4,18.7,163,24.8z"/>
</g>
</svg>
