<?xml version="1.0" encoding="utf-8"?>
<!-- Generator: Adobe Illustrator 26.2.1, SVG Export Plug-In . SVG Version: 6.00 Build 0)  -->
<svg version="1.1" id="Layer_1" xmlns="http://www.w3.org/2000/svg" xmlns:xlink="http://www.w3.org/1999/xlink" x="0px" y="0px"
	 viewBox="0 0 845 79.6" style="enable-background:new 0 0 845 79.6;" xml:space="preserve">
<style type="text/css">
	.st0{fill:#00B08D;}
	.st1{display:none;fill:#00B08D;}
	.st2{display:none;}
	.st3{display:inline;fill:#00B08D;}
	.st4{fill:#202020;}
	.st5{fill:#EDEDEC;}
	.st6{display:inline;fill:#00F7C8;}
	.st7{fill:#2B7BEF;}
	.st8{fill:#FFF7E9;}
	.st9{fill:#161616;}
</style>
<g>
	<g>
		<path class="st8" d="M40.8,56.9c-0.1,0.4-0.4,0.5-0.6,0.5c-0.3,0-0.3-0.3-0.1-0.7c0.4-1.3,0.5-2.6,0.5-3.8c0-3.3-0.9-6.9-2.6-10.8
			c-1.7-3.9-3.9-7.1-6.7-9.8c-2.7-2.7-5.4-4-8.2-4c-7.1,0-10.6,4.2-10.6,12.5c0,5.3,1.3,10.3,3.8,15.2c2.5,4.9,5.8,8.8,9.8,11.8
			c4,3,8.2,4.5,12.4,4.5c4.4,0,7.9-1.4,10.6-4.2c0.3-0.3,0.5-0.3,0.6-0.2c0.1,0.2,0.1,0.4-0.1,0.6c-2.9,3.8-6.3,6.5-10.3,8.3
			c-4,1.8-8.3,2.7-13,2.7c-4.8,0-9.2-1.1-13.2-3.2c-4-2.1-7.3-5.1-9.7-9C1.2,63.5,0,59,0,53.8c0-4.9,1.3-9.5,3.8-13.7
			c2.6-4.3,6-7.6,10.3-10.2c4.3-2.5,9-3.8,14.2-3.8c3.5,0,6.9,0.5,10.1,1.4c3.2,0.9,5.6,2.1,7.4,3.5c1.8,1.4,2.4,2.8,2,4.3
			L40.8,56.9z"/>
		<path class="st8" d="M114.3,57.1c0.3,0,0.5,0.2,0.5,0.6c0,4.5-0.7,8.5-2.1,11.7c-1.4,3.3-3.3,5.8-5.6,7.5
			c-2.3,1.7-4.7,2.6-7.2,2.6c-2.5,0-4.6-1-6.4-3.1c-1.8-2.1-3.2-5.1-4.1-9.1l-0.5-2.2c-1.4,4.6-3.7,8.2-6.9,10.7
			c-3.2,2.5-6.7,3.7-10.5,3.7c-4,0-7.4-0.8-10.2-2.5c-2.7-1.7-4.8-3.8-6.2-6.5c-1.4-2.7-2.1-5.6-2.1-8.6c0-3.8,1.8-6.8,5.4-9
			c3.6-2.2,8.3-3.3,14.1-3.3c5.1,0,9.5,0.4,13.1,1.1l-2.5-10.6c-0.8-3.5-2.1-6-4-7.7c-1.9-1.7-4.5-2.5-7.9-2.5c-4.3,0-8,1.2-11,3.6
			c-3,2.4-4.7,6.2-5.1,11.4c-0.1,0.6-0.3,0.9-0.5,0.9c-0.3,0-0.4-0.3-0.4-0.9c0.4-4.3,1.9-7.8,4.3-10.6c2.4-2.8,5.4-4.8,8.9-6.1
			c3.5-1.3,7.1-1.9,10.8-1.9c6.5,0,11.3,1.2,14.5,3.6c3.2,2.4,5.5,6.4,6.8,12.1l5.2,23.4c0.4,1.7,1,3,1.6,3.9
			c0.6,0.9,1.5,1.4,2.5,1.4c1.4,0,2.7-1.2,3.7-3.7c1-2.5,1.5-5.5,1.4-9.1C113.9,57.4,114,57.2,114.3,57.1z M87.9,60.9L86,52.4
			c-3-0.8-5.9-1.2-8.9-1.2c-3.6,0-6.2,0.6-7.7,1.8c-1.5,1.2-2.3,3.5-2.3,6.8c0,3.5,1,6.4,2.9,8.8c1.9,2.4,4.6,3.6,8.1,3.6
			c5.6,0,8.7-2.8,9.4-8.5C87.9,63,88.1,62,87.9,60.9z"/>
		<path class="st8" d="M216.2,57.1c0.3,0,0.4,0.2,0.4,0.6c0,4.5-0.7,8.5-2.1,11.7c-1.4,3.3-3.2,5.8-5.5,7.5
			c-2.3,1.7-4.7,2.6-7.2,2.6c-2.5,0-4.6-1-6.5-3.1c-1.9-2.1-3.3-5.1-4.2-9l-7-28.8c-0.6-2.7-1.6-4.5-2.7-5.6
			c-1.2-1.1-2.7-1.6-4.5-1.6c-2.8,0-4.9,1.2-6.3,3.6c-1.4,2.4-2.2,5.3-2.4,8.7l3.5,22.5c0.3,2.1,0.8,3.6,1.7,4.6
			c0.8,1,1.7,1.5,2.6,1.5c0.6,0,1-0.1,1.4-0.4c0.2-0.1,0.4-0.1,0.5,0c0.1,0.1,0.1,0.3-0.2,0.5c-1.2,2.2-2.6,3.9-4.4,5.1
			c-1.8,1.2-3.7,1.8-5.7,1.8c-2.7,0-5.2-0.9-7.2-2.8c-2.1-1.8-3.4-4.3-3.9-7.5l-4.5-29.7c-0.9-5.3-3.2-8-6.9-8
			c-2.5,0-4.4,1.5-5.9,4.4c-1.5,3-2.4,6.2-2.6,9.8v21.4c0,3.7,0.4,6.3,1.4,7.8c0.9,1.4,2.6,2.2,5.1,2.3c0.4,0,0.5,0.1,0.5,0.4
			c0,0.3-0.2,0.4-0.5,0.4c-3.2-0.1-7.3-0.2-12.3-0.2c-6.6,0-11.8,0.1-15.7,0.2c-0.4,0-0.6-0.1-0.6-0.4c0-0.3,0.2-0.4,0.6-0.4
			c1.7,0,3-0.2,3.8-0.6c0.8-0.4,1.5-1.3,1.9-2.8c0.4-1.4,0.6-3.7,0.6-6.8V43.9c0-3.2-0.3-5.6-1-7c-0.7-1.4-2.1-2.1-4.2-2.1
			c-0.6,0-1.2,0-1.5,0.1c-0.3,0.1-0.5,0-0.5-0.3c-0.1-0.3,0-0.4,0.3-0.5c3.8-0.9,7.8-2.1,11.8-3.6c4.1-1.5,7.4-3.2,10.1-5
			c0.4-0.2,0.6-0.3,0.8-0.3c0.4,0,0.5,0.3,0.5,0.8c-0.6,5.8-0.9,9.9-1.1,12.3c1.2-3.3,3.2-6.2,5.9-8.6c2.7-2.4,6.1-3.6,10.1-3.6
			c3.6,0,6.8,1.1,9.5,3.4c2.7,2.2,4.5,5.7,5.4,10.4c0.7-3.9,2.6-7.2,5.5-9.8c3-2.6,6.7-3.9,11.1-3.9c4.3,0,7.7,0.9,10.2,2.8
			c2.6,1.9,4.3,4.9,5.4,9.2l6.5,27.1c0.9,3.5,2.4,5.2,4.3,5.2c1.4,0,2.7-1.2,3.7-3.7c1-2.5,1.5-5.5,1.5-9
			C215.7,57.4,215.9,57.2,216.2,57.1z"/>
		<path class="st8" d="M244.8,77.2c0.4,0,0.5,0.2,0.5,0.5s-0.2,0.4-0.5,0.4c-1.4-0.1-6.1-0.1-14.1-0.1c-7.9,0-12.6,0-13.9,0.1
			c-0.4,0-0.6-0.1-0.6-0.4c0-0.3,0.2-0.4,0.6-0.4c2.2,0,3.9-1,4.9-3c1-2,1.5-5,1.5-9.1V43.9c0-3.2-0.3-5.6-1-7
			c-0.7-1.4-2.1-2.1-4.2-2.1c-0.6,0-1.2,0-1.5,0.1c-0.3,0.1-0.5,0-0.5-0.3c-0.1-0.3,0-0.4,0.3-0.5c3.8-0.9,7.8-2.1,11.8-3.6
			c4.1-1.5,7.4-3.2,10.1-5c0.4-0.2,0.6-0.3,0.8-0.3c0.4,0,0.5,0.3,0.5,0.8c-0.5,4.8-0.8,8.5-1,11c-0.1,2.5-0.2,5.4-0.2,8.7v19.4
			C238.3,73.1,240.5,77.1,244.8,77.2z M222.3,15.7c-1.5-1.2-2.3-2.6-2.3-4.4c0-2.2,1-4,3.1-5.6c2.1-1.5,4.7-2.3,7.9-2.3
			c2.6,0,4.6,0.6,6.2,1.7c1.5,1.1,2.3,2.6,2.3,4.4c0,2.2-1,4.1-3.1,5.7c-2.1,1.6-4.8,2.3-8,2.3C225.9,17.4,223.8,16.8,222.3,15.7z"
			/>
		<path class="st8" d="M255.6,14.2c-0.4-1.5-0.9-2.4-1.5-2.8c-0.6-0.4-1.6-0.5-2.7-0.3h-0.1c-0.5,0-0.8-0.3-0.8-0.9
			C259.7,8,266.9,4.5,272.1,0h0.3c0.5,0,0.7,0.3,0.6,0.9c-0.5,3.5-0.9,7-1.1,10.5c-0.2,3.5-0.3,7.6-0.3,12.5v41.2
			c0,8,2.2,12,6.5,12.1c0.4,0,0.5,0.2,0.5,0.5s-0.2,0.4-0.5,0.4c-1.4-0.1-6.1-0.1-14.1-0.1s-12.7,0-14.1,0.1c-0.4,0-0.5-0.1-0.5-0.4
			c0-0.3,0.2-0.4,0.6-0.4c2.2,0,3.8-1,4.8-3c1-2,1.6-5,1.6-9.1l-0.3-43.8C256.2,18.1,256,15.7,255.6,14.2z"/>
		<path class="st8" d="M344.7,57.1c0.3,0,0.5,0.2,0.5,0.6c0,4.5-0.7,8.5-2.1,11.7c-1.4,3.3-3.3,5.8-5.6,7.5
			c-2.3,1.7-4.7,2.6-7.2,2.6c-2.5,0-4.6-1-6.4-3.1c-1.8-2.1-3.2-5.1-4.1-9.1l-0.5-2.2c-1.4,4.6-3.7,8.2-6.9,10.7
			c-3.2,2.5-6.7,3.7-10.5,3.7c-4,0-7.4-0.8-10.2-2.5c-2.7-1.7-4.8-3.8-6.2-6.5c-1.4-2.7-2.1-5.6-2.1-8.6c0-3.8,1.8-6.8,5.4-9
			c3.6-2.2,8.3-3.3,14.1-3.3c5.1,0,9.5,0.4,13.1,1.1l-2.5-10.6c-0.8-3.5-2.1-6-4-7.7c-1.9-1.7-4.5-2.5-7.9-2.5c-4.3,0-8,1.2-11,3.6
			c-3,2.4-4.7,6.2-5.1,11.4c-0.1,0.6-0.3,0.9-0.5,0.9c-0.3,0-0.4-0.3-0.4-0.9c0.4-4.3,1.9-7.8,4.3-10.6c2.4-2.8,5.4-4.8,8.9-6.1
			c3.5-1.3,7.1-1.9,10.8-1.9c6.5,0,11.3,1.2,14.5,3.6c3.2,2.4,5.5,6.4,6.8,12.1l5.2,23.4c0.4,1.7,1,3,1.6,3.9
			c0.6,0.9,1.5,1.4,2.5,1.4c1.4,0,2.7-1.2,3.7-3.7c1-2.5,1.5-5.5,1.4-9.1C344.2,57.4,344.3,57.2,344.7,57.1z M318.2,60.9l-1.9-8.4
			c-3-0.8-5.9-1.2-8.9-1.2c-3.6,0-6.2,0.6-7.7,1.8c-1.5,1.2-2.3,3.5-2.3,6.8c0,3.5,1,6.4,2.9,8.8c1.9,2.4,4.6,3.6,8.1,3.6
			c5.6,0,8.7-2.8,9.4-8.5C318.3,63,318.4,62,318.2,60.9z"/>
	</g>
	<g>
		<path class="st8" d="M437.9,57c0.3,0,0.5,0.2,0.5,0.6c0,4.5-0.7,8.5-2.1,11.7c-1.4,3.3-3.3,5.8-5.6,7.5c-2.3,1.7-4.7,2.6-7.2,2.6
			c-2.5,0-4.6-1-6.4-3.1c-1.8-2.1-3.2-5.1-4.1-9.1l-0.5-2.2c-1.4,4.6-3.7,8.2-6.9,10.7c-3.2,2.5-6.7,3.7-10.5,3.7
			c-4,0-7.4-0.8-10.2-2.5c-2.7-1.7-4.8-3.8-6.2-6.5c-1.4-2.7-2.1-5.6-2.1-8.6c0-3.8,1.8-6.8,5.4-9c3.6-2.2,8.3-3.3,14.1-3.3
			c5.1,0,9.5,0.4,13.1,1.1L406.7,40c-0.8-3.5-2.1-6-4-7.7c-1.9-1.7-4.5-2.5-7.9-2.5c-4.3,0-8,1.2-11,3.6c-3,2.4-4.7,6.2-5.1,11.4
			c-0.1,0.6-0.3,0.9-0.5,0.9c-0.3,0-0.4-0.3-0.4-0.9c0.4-4.3,1.9-7.8,4.3-10.6c2.4-2.8,5.4-4.8,8.9-6.1c3.5-1.3,7.1-1.9,10.8-1.9
			c6.5,0,11.3,1.2,14.5,3.6c3.2,2.4,5.5,6.4,6.8,12.1l5.2,23.4c0.4,1.7,1,3,1.6,3.9c0.6,0.9,1.5,1.4,2.5,1.4c1.4,0,2.7-1.2,3.7-3.7
			c1-2.5,1.5-5.5,1.4-9.1C437.4,57.3,437.5,57.1,437.9,57z M411.4,60.8l-1.9-8.4c-3-0.8-5.9-1.2-8.9-1.2c-3.6,0-6.2,0.6-7.7,1.8
			c-1.5,1.2-2.3,3.5-2.3,6.8c0,3.5,1,6.4,2.9,8.8c1.9,2.4,4.6,3.6,8.1,3.6c5.6,0,8.7-2.8,9.4-8.5C411.5,62.9,411.6,61.9,411.4,60.8z
			"/>
		<path class="st8" d="M539.7,57c0.3,0,0.4,0.2,0.4,0.6c0,4.5-0.7,8.5-2.1,11.7c-1.4,3.3-3.2,5.8-5.5,7.5c-2.3,1.7-4.7,2.6-7.2,2.6
			c-2.5,0-4.6-1-6.5-3.1c-1.9-2.1-3.3-5.1-4.2-9l-7-28.8c-0.6-2.7-1.6-4.5-2.7-5.6c-1.2-1.1-2.7-1.6-4.5-1.6c-2.8,0-4.9,1.2-6.3,3.6
			c-1.4,2.4-2.2,5.3-2.4,8.7l3.5,22.5c0.3,2.1,0.8,3.6,1.7,4.6c0.8,1,1.7,1.5,2.6,1.5c0.6,0,1-0.1,1.4-0.4c0.2-0.1,0.4-0.1,0.5,0
			c0.1,0.1,0.1,0.3-0.2,0.5c-1.2,2.2-2.6,3.9-4.4,5.1c-1.8,1.2-3.7,1.8-5.7,1.8c-2.7,0-5.2-0.9-7.2-2.8c-2.1-1.8-3.4-4.3-3.9-7.5
			l-4.5-29.7c-0.9-5.3-3.2-8-6.9-8c-2.5,0-4.4,1.5-5.9,4.4c-1.5,3-2.4,6.2-2.6,9.8V67c0,3.7,0.4,6.3,1.4,7.8
			c0.9,1.4,2.6,2.2,5.1,2.3c0.4,0,0.5,0.1,0.5,0.4c0,0.3-0.2,0.4-0.5,0.4c-3.2-0.1-7.3-0.2-12.3-0.2c-6.6,0-11.8,0.1-15.7,0.2
			c-0.4,0-0.6-0.1-0.6-0.4c0-0.3,0.2-0.4,0.6-0.4c1.7,0,3-0.2,3.8-0.6c0.8-0.4,1.5-1.3,1.9-2.8c0.4-1.4,0.6-3.7,0.6-6.8V43.8
			c0-3.2-0.3-5.6-1-7c-0.7-1.4-2.1-2.1-4.2-2.1c-0.6,0-1.2,0-1.5,0.1c-0.3,0.1-0.5,0-0.5-0.3c-0.1-0.3,0-0.4,0.3-0.5
			c3.8-0.9,7.8-2.1,11.8-3.6c4.1-1.5,7.4-3.2,10.1-5c0.4-0.2,0.6-0.3,0.8-0.3c0.4,0,0.5,0.3,0.5,0.8c-0.6,5.8-0.9,9.9-1.1,12.3
			c1.2-3.3,3.2-6.2,5.9-8.6c2.7-2.4,6.1-3.6,10.1-3.6c3.6,0,6.8,1.1,9.5,3.4c2.7,2.2,4.5,5.7,5.4,10.4c0.7-3.9,2.6-7.2,5.5-9.8
			c3-2.6,6.7-3.9,11.1-3.9c4.3,0,7.7,0.9,10.2,2.8c2.6,1.9,4.3,4.9,5.4,9.2l6.5,27.1c0.9,3.5,2.4,5.2,4.3,5.2c1.4,0,2.7-1.2,3.7-3.7
			c1-2.5,1.5-5.5,1.5-9C539.2,57.3,539.4,57.1,539.7,57z"/>
		<path class="st8" d="M604.6,57c0.3,0,0.5,0.2,0.5,0.6c0,4.5-0.7,8.5-2.1,11.7c-1.4,3.3-3.3,5.8-5.6,7.5c-2.3,1.7-4.7,2.6-7.2,2.6
			c-2.5,0-4.6-1-6.4-3.1c-1.8-2.1-3.2-5.1-4.1-9.1l-0.5-2.2c-1.4,4.6-3.7,8.2-6.9,10.7c-3.2,2.5-6.7,3.7-10.5,3.7
			c-4,0-7.4-0.8-10.2-2.5c-2.7-1.7-4.8-3.8-6.2-6.5c-1.4-2.7-2.1-5.6-2.1-8.6c0-3.8,1.8-6.8,5.4-9c3.6-2.2,8.3-3.3,14.1-3.3
			c5.1,0,9.5,0.4,13.1,1.1L573.4,40c-0.8-3.5-2.1-6-4-7.7c-1.9-1.7-4.5-2.5-7.9-2.5c-4.3,0-8,1.2-11,3.6c-3,2.4-4.7,6.2-5.1,11.4
			c-0.1,0.6-0.3,0.9-0.5,0.9c-0.3,0-0.4-0.3-0.4-0.9c0.4-4.3,1.9-7.8,4.3-10.6c2.4-2.8,5.4-4.8,8.9-6.1c3.5-1.3,7.1-1.9,10.8-1.9
			c6.5,0,11.3,1.2,14.5,3.6c3.2,2.4,5.5,6.4,6.8,12.1l5.2,23.4c0.4,1.7,1,3,1.6,3.9c0.6,0.9,1.5,1.4,2.5,1.4c1.4,0,2.7-1.2,3.7-3.7
			c1-2.5,1.5-5.5,1.4-9.1C604.1,57.3,604.3,57.1,604.6,57z M578.2,60.8l-1.9-8.4c-3-0.8-5.9-1.2-8.9-1.2c-3.6,0-6.2,0.6-7.7,1.8
			c-1.5,1.2-2.3,3.5-2.3,6.8c0,3.5,1,6.4,2.9,8.8c1.9,2.4,4.6,3.6,8.1,3.6c5.6,0,8.7-2.8,9.4-8.5C578.2,62.9,578.3,61.9,578.2,60.8z
			"/>
		<path class="st8" d="M614.8,75.7c-2.1-2.5-3.2-5.5-3.2-9.1V31.9c0-1.1-0.1-1.9-0.4-2.4c-0.3-0.5-0.9-0.8-1.9-0.8h-3.8
			c-0.4,0-0.5-0.1-0.5-0.3c0-0.2,0.2-0.4,0.5-0.4c4.5-0.8,8.7-2.8,12.7-6c4-3.2,6.7-7.1,8.2-11.7c0.1-0.5,0.3-0.8,0.5-0.8
			c0.2,0,0.3,0.3,0.3,0.8l-0.5,15.6c0,0.9,0.2,1.4,0.6,1.7c0.4,0.3,1.1,0.4,2.2,0.4h9.7c0.1,0,0.1,0.1,0.1,0.2
			c0,0.1-0.1,0.3-0.2,0.4c-0.1,0.1-0.3,0.2-0.5,0.2h-8.9c-1.2,0-1.9,0.2-2.4,0.6c-0.4,0.4-0.6,1.1-0.6,2.1v31.1
			c0,2.7,0.5,4.8,1.6,6.3c1,1.5,2.4,2.2,4.2,2.2c1.4,0,2.8-0.5,4.3-1.4c1.5-0.9,3-2.2,4.3-3.9c0.4-0.4,0.6-0.4,0.8-0.3
			c0.1,0.2,0.1,0.5-0.2,0.8c-3.3,4.5-6.6,7.9-9.7,9.9c-3.2,2.1-6.2,3.1-9,3.1C619.6,79.5,616.9,78.2,614.8,75.7z"/>
		<path class="st8" d="M709.5,57c0.2,0,0.3,0.2,0.3,0.5c0,3.8-0.6,7.4-1.9,10.8c-1.3,3.4-3,6-5.2,8c-2.2,2-4.7,3-7.4,3
			c-3.2,0-5.9-1.1-8.1-3.3c-2.2-2.2-3.3-5.5-3.3-9.8c-1,4-3,7.2-5.9,9.7c-3,2.5-6.9,3.7-11.8,3.7c-5.3,0-9.6-1.8-12.9-5.4
			c-3.3-3.6-4.9-8.9-4.9-15.9V43.8c0-3.2-0.3-5.6-1-7c-0.7-1.4-2.1-2.1-4.2-2.1c-0.6,0-1.2,0-1.5,0.1c-0.3,0.1-0.5,0-0.5-0.3
			c-0.1-0.3,0-0.4,0.3-0.5c3.8-0.9,7.8-2.1,11.8-3.6c4.1-1.5,7.4-3.2,10.1-5c0.3-0.2,0.5-0.3,0.8-0.3c0.4,0,0.5,0.3,0.5,0.8
			c-0.5,4.8-0.8,8.5-1,11c-0.1,2.5-0.2,5.4-0.2,8.7v13.5c0,10.4,3.1,15.6,9.4,15.6c3.4,0,6.1-1.5,8.1-4.4c2-3,3-6.7,3-11.2V43.8
			c0-3.2-0.3-5.6-1-7c-0.7-1.4-2.1-2.1-4.2-2.1c-0.6,0-1.2,0-1.5,0.1c-0.3,0.1-0.5,0-0.5-0.3c-0.1-0.3,0-0.4,0.3-0.5
			c3.8-0.9,7.8-2.1,11.8-3.6c4.1-1.5,7.4-3.2,10.1-5c0.4-0.2,0.6-0.3,0.8-0.3c0.4,0,0.5,0.3,0.5,0.8c-0.5,4.8-0.8,8.5-1,11
			c-0.1,2.5-0.2,5.4-0.2,8.7v17.3c0,4.9,1.3,7.4,3.8,7.4c2.5,0,4.2-1.1,4.9-3.4c0.8-2.3,1.2-5.4,1.4-9.4
			C709.2,57.2,709.3,57,709.5,57z"/>
		<path class="st8" d="M751.4,56.8c-0.1,0.4-0.4,0.5-0.6,0.5c-0.3,0-0.3-0.3-0.1-0.7c0.4-1.3,0.5-2.6,0.5-3.8
			c0-3.3-0.9-6.9-2.6-10.8c-1.7-3.9-3.9-7.1-6.7-9.8c-2.7-2.7-5.4-4-8.2-4c-7.1,0-10.6,4.2-10.6,12.5c0,5.3,1.3,10.3,3.8,15.2
			c2.5,4.9,5.8,8.8,9.8,11.8c4,3,8.2,4.5,12.4,4.5c4.4,0,7.9-1.4,10.6-4.2c0.3-0.3,0.5-0.3,0.6-0.2c0.1,0.2,0.1,0.4-0.1,0.6
			c-2.9,3.8-6.3,6.5-10.3,8.3c-4,1.8-8.3,2.7-13,2.7c-4.8,0-9.2-1.1-13.2-3.2c-4-2.1-7.3-5.1-9.7-9c-2.4-3.9-3.6-8.4-3.6-13.5
			c0-4.9,1.3-9.5,3.8-13.7c2.6-4.3,6-7.6,10.3-10.2c4.3-2.5,9-3.8,14.2-3.8c3.5,0,6.9,0.5,10.1,1.4c3.2,0.9,5.6,2.1,7.4,3.5
			c1.8,1.4,2.4,2.8,2,4.3L751.4,56.8z"/>
		<path class="st8" d="M803.9,56.8c-0.1,0.4-0.4,0.5-0.6,0.5c-0.3,0-0.3-0.3-0.1-0.7c0.4-1.3,0.5-2.6,0.5-3.8
			c0-3.3-0.9-6.9-2.6-10.8c-1.7-3.9-3.9-7.1-6.7-9.8c-2.7-2.7-5.4-4-8.2-4c-7.1,0-10.6,4.2-10.6,12.5c0,5.3,1.3,10.3,3.8,15.2
			c2.5,4.9,5.8,8.8,9.8,11.8c4,3,8.2,4.5,12.4,4.5c4.4,0,7.9-1.4,10.6-4.2c0.3-0.3,0.5-0.3,0.6-0.2c0.1,0.2,0.1,0.4-0.1,0.6
			c-2.9,3.8-6.3,6.5-10.3,8.3c-4,1.8-8.3,2.7-13,2.7c-4.8,0-9.2-1.1-13.2-3.2c-4-2.1-7.3-5.1-9.7-9c-2.4-3.9-3.6-8.4-3.6-13.5
			c0-4.9,1.3-9.5,3.8-13.7c2.6-4.3,6-7.6,10.3-10.2c4.3-2.5,9-3.8,14.2-3.8c3.5,0,6.9,0.5,10.1,1.4c3.2,0.9,5.6,2.1,7.4,3.5
			c1.8,1.4,2.4,2.8,2,4.3L803.9,56.8z"/>
		<path class="st8" d="M844.5,77.1c0.4,0,0.5,0.2,0.5,0.5s-0.2,0.4-0.5,0.4c-1.4-0.1-6.1-0.1-14.1-0.1c-7.9,0-12.6,0-13.9,0.1
			c-0.4,0-0.6-0.1-0.6-0.4c0-0.3,0.2-0.4,0.6-0.4c2.2,0,3.9-1,4.9-3c1-2,1.5-5,1.5-9.1V43.8c0-3.2-0.3-5.6-1-7
			c-0.7-1.4-2.1-2.1-4.2-2.1c-0.6,0-1.2,0-1.5,0.1c-0.3,0.1-0.5,0-0.5-0.3c-0.1-0.3,0-0.4,0.3-0.5c3.8-0.9,7.8-2.1,11.8-3.6
			c4.1-1.5,7.4-3.2,10.1-5c0.4-0.2,0.6-0.3,0.8-0.3c0.4,0,0.5,0.3,0.5,0.8c-0.5,4.8-0.8,8.5-1,11c-0.1,2.5-0.2,5.4-0.2,8.7V65
			C838,73,840.2,77,844.5,77.1z M822,15.6c-1.5-1.2-2.3-2.6-2.3-4.4c0-2.2,1-4,3.1-5.6c2.1-1.5,4.7-2.3,7.9-2.3
			c2.6,0,4.6,0.6,6.2,1.7c1.5,1.1,2.3,2.6,2.3,4.4c0,2.2-1,4.1-3.1,5.7c-2.1,1.6-4.8,2.3-8,2.3C825.5,17.3,823.5,16.7,822,15.6z"/>
	</g>
</g>
</svg>
